<svg viewBox="0 0 480 320" xmlns="http://www.w3.org/2000/svg" aria-label="GST Services Illustration">
      <rect width="480" height="320" rx="16" fill="#F3F4F6" />
      <rect x="190" y="80" width="100" height="160" rx="8" fill="#6B7280" />
      <path d="M190 80 L 240 40 L 290 80 Z" fill="#4B5563" />
      <rect x="225" y="100" width="30" height="60" rx="4" fill="#F9FAFB" />
      <circle cx="240" cy="120" r="5" fill="#6B7280"/>
      <path d="M60 180 C 100 120, 140 120, 180 180" fill="none" stroke="#3B82F6" strokeWidth="8" strokeDasharray="12 6"/>
      <path d="M70 185 l -15 0 l 8 -12 z" fill="#3B82F6" />
      <path d="M300 180 C 340 240, 380 240, 420 180" fill="none" stroke="#10B981" strokeWidth="8" strokeDasharray="12 6"/>
      <path d="M410 175 l 15 0 l -8 12 z" fill="#10B981" />
      <rect x="40" y="220" width="80" height="60" rx="6" fill="#FFFFFF" stroke="#D1D5DB" strokeWidth="2"/>
      <rect x="50" y="230" width="60" height="4" rx="2" fill="#D1D5DB" />
      <rect x="50" y="240" width="40" height="4" rx="2" fill="#D1D5DB" />
      <text x="80" y="265" textAnchor="middle" fontSize="10" fontWeight="bold" fill="#3B82F6">GSTR-1</text>
      <rect x="360" y="100" width="80" height="60" rx="6" fill="#FFFFFF" stroke="#D1D5DB" strokeWidth="2"/>
      <rect x="370" y="110" width="60" height="4" rx="2" fill="#D1D5DB" />
      <rect x="370" y="120" width="50" height="4" rx="2" fill="#D1D5DB" />
      <text x="400" y="145" textAnchor="middle" fontSize="10" fontWeight="bold" fill="#10B981">GSTR-3B</text>
      <circle cx="120" cy="100" r="24" fill="#FFFFFF" stroke="#D1D5DB" strokeWidth="2" />
      <text x="120" y="108" textAnchor="middle" fontSize="18" fontWeight="bold" fill="#3B82F6">₹</text>
      <text x="112" y="95" textAnchor="middle" fontSize="10" fill="#3B82F6">ITC</text>
       <circle cx="360" cy="250" r="24" fill="#FFFFFF" stroke="#D1D5DB" strokeWidth="2" />
      <path d="M352 250 l 6 6 l 12 -12" stroke="#10B981" strokeWidth="3" fill="none" strokeLinecap="round"/>
      <text x="360" y="270" textAnchor="middle" fontSize="8" fill="#10B981">COMPLIANT</text>
    </svg>